<svg id="layer" xmlns="http://www.w3.org/2000/svg" viewBox="0 0 500 500"><defs><style>.cls-1{isolation:isolate;}.cls-2{fill:#897e73;}.cls-3{fill:#83766b;}.cls-4{fill:#726457;}.cls-5{fill:#cb9a79;}.cls-6{fill:#c99572;}.cls-7{fill:#c1865f;}.cls-8{fill:#91ca7e;}.cls-9{fill:#8bc776;}.cls-10{fill:#7bbf64;}.cls-11{fill:#a3d9e7;}.cls-12{fill:#936029;}.cls-13{fill:#a07343;}.cls-14{fill:#a57a4c;}.cls-15{fill:#43b36e;}.cls-16{fill:#5abc7f;}.cls-17{fill:#63c086;}.cls-18{fill:#5b9e64;}.cls-19{fill:#a3a2a2;}.cls-20{fill:#7e7e7c;}.cls-21{fill:#919191;}.cls-22{fill:#767777;}.cls-23{fill:#e84644;}.cls-24{fill:#ce3f3d;}.cls-25{fill:#a93534;}.cls-26{fill:#764422;}.cls-27{fill:#6a3d1e;}.cls-28{fill:#492a15;}.cls-29{fill:#dc3c26;}.cls-30{fill:#e9b94f;}.cls-31{fill:#f5d244;}.cls-32{fill:#edb551;}.cls-33{fill:#d8a149;}</style></defs><title>v9</title><g class="cls-1"><polygon class="cls-2" points="426.69 354.76 250.49 457.15 73.14 354.76 249.33 252.36 426.69 354.76"/><polygon class="cls-3" points="426.69 354.76 426.65 366.99 250.46 469.38 250.49 457.15 426.69 354.76"/><polygon class="cls-4" points="250.49 457.15 250.46 469.38 73.1 366.98 73.14 354.76 250.49 457.15"/></g><g class="cls-1"><polygon class="cls-5" points="426.75 297.59 250.55 399.98 73.2 297.59 249.4 195.19 426.75 297.59"/><polygon class="cls-6" points="426.75 297.59 426.59 354.65 250.39 457.04 250.55 399.98 426.75 297.59"/><polygon class="cls-7" points="250.55 399.98 250.39 457.04 73.04 354.65 73.2 297.59 250.55 399.98"/></g><g class="cls-1"><polygon class="cls-8" points="426.73 256.75 250.53 359.15 73.18 256.75 249.38 154.36 426.73 256.75"/><polygon class="cls-9" points="426.73 256.75 426.61 297.51 250.41 399.91 250.53 359.15 426.73 256.75"/><polygon class="cls-10" points="250.53 359.15 250.41 399.91 73.06 297.51 73.18 256.75 250.53 359.15"/></g><path class="cls-11" d="M306.12,227.06a11.27,11.27,0,0,1,1.11.74c9,6.9-3.09,24.43-25.4,30-15,3.75-35.35,2.24-44.19-2.86a10.7,10.7,0,0,1-3.47-3c-5.7-8.2,13.92-20.69,33.72-25.18C278.78,224.31,298,222.37,306.12,227.06Z"/><g class="cls-1"><polygon class="cls-12" points="250.93 169.41 250.81 211.62 243.75 207.55 243.87 165.33 250.93 169.41"/><polygon class="cls-13" points="250.93 169.41 257.95 165.33 257.83 207.54 250.81 211.62 250.93 169.41"/><polygon class="cls-14" points="243.87 165.33 250.89 161.25 257.95 165.33 250.93 169.41 243.87 165.33"/></g><g class="cls-1"><polygon class="cls-15" points="250.99 144.22 250.89 176.7 222.63 160.38 222.73 127.9 250.99 144.22"/><polygon class="cls-16" points="250.99 144.22 279.06 127.9 278.97 160.38 250.89 176.7 250.99 144.22"/><polygon class="cls-17" points="222.73 127.9 250.8 111.59 279.06 127.9 250.99 144.22 222.73 127.9"/></g><g class="cls-1"><polygon class="cls-15" points="261.93 167.74 261.87 190.56 242.01 179.09 242.08 156.27 261.93 167.74"/><polygon class="cls-16" points="261.93 167.74 281.66 156.27 281.6 179.09 261.87 190.56 261.93 167.74"/><polygon class="cls-17" points="242.08 156.27 261.81 144.81 281.66 156.27 261.93 167.74 242.08 156.27"/></g><g class="cls-1"><polygon class="cls-15" points="237.92 177.72 237.87 194.02 223.69 185.83 223.74 169.53 237.92 177.72"/><polygon class="cls-16" points="237.92 177.72 252.01 169.53 251.96 185.83 237.87 194.02 237.92 177.72"/><polygon class="cls-17" points="223.74 169.53 237.83 161.34 252.01 169.53 237.92 177.72 223.74 169.53"/></g><path class="cls-18" d="M256.09,249.23a2.5,2.5,0,0,1,1,1l-3.82.59,3.24,1.33a4.64,4.64,0,0,1-2.21.89,6.12,6.12,0,0,1-3.83-.6,2.47,2.47,0,0,1-1-1c-.56-1.22.7-2.48,2.79-2.81A6.15,6.15,0,0,1,256.09,249.23Z"/><path class="cls-19" d="M307.61,234.5l-3,10.52,7.27,4.21q.93-6.81,1.87-13.61Z"/><path class="cls-20" d="M319.08,233.34l-5.3,2.28q-.93,6.81-1.87,13.61l8.17-5.44C319.75,240.31,319.41,236.82,319.08,233.34Z"/><path class="cls-21" d="M307.61,234.5l4.71-3.51,6.76,2.35-5.3,2.28Z"/><polygon class="cls-22" points="312.87 242.25 307.61 246.25 307.61 251.47 311.91 249.23 312.87 242.25"/><path class="cls-21" d="M312.87,242.25,306,240.38l-1.53,1.44,3.19,4.43Z"/><path class="cls-19" d="M304.42,241.82l-3.21,6.71,6.4,2.94v-5.22Z"/><path class="cls-23" d="M198.62,199.84q-4.27,10.91-8.54,21.83l15.5,12.5,7.81-25Z"/><polygon class="cls-24" points="213.39 209.18 205.57 234.17 224.34 224.57 213.39 209.18"/><polygon class="cls-25" points="214.13 219.77 211.74 231.02 220.47 226.55 214.13 219.77"/><g class="cls-1"><polygon class="cls-26" points="224.45 240.82 215.15 246.22 213.81 245.45 223.11 240.05 224.45 240.82"/><polygon class="cls-27" points="224.45 240.82 224.44 242.35 215.14 247.76 215.15 246.22 224.45 240.82"/><polygon class="cls-28" points="215.15 246.22 215.14 247.76 213.81 246.99 213.81 245.45 215.15 246.22"/></g><g class="cls-1"><polygon class="cls-26" points="224.48 245.45 223.15 246.23 213.78 240.82 215.11 240.04 224.48 245.45"/><polygon class="cls-27" points="224.48 245.45 224.47 246.99 223.14 247.76 223.15 246.23 224.48 245.45"/><polygon class="cls-28" points="223.15 246.23 223.14 247.76 213.78 242.35 213.78 240.82 223.15 246.23"/></g><path class="cls-29" d="M216.87,243.16c-1.88-2.44,1.31-7.42,2.8-7.23s3.14,6.83,1.05,8.24C219.68,244.88,217.74,244.29,216.87,243.16Z"/><path class="cls-30" d="M218,244c-.78-1.06.58-3.07,1.29-3s1.62,2.71.74,3.42A1.6,1.6,0,0,1,218,244Z"/><g class="cls-1"><polygon class="cls-12" points="360.74 224.68 360.62 266.89 353.55 262.81 353.67 220.6 360.74 224.68"/><polygon class="cls-13" points="360.74 224.68 367.76 220.6 367.64 262.81 360.62 266.89 360.74 224.68"/><polygon class="cls-14" points="353.67 220.6 360.69 216.52 367.76 220.6 360.74 224.68 353.67 220.6"/></g><g class="cls-1"><polygon class="cls-15" points="360.76 226.47 360.69 250.92 339.41 238.64 339.48 214.19 360.76 226.47"/><polygon class="cls-16" points="360.76 226.47 381.9 214.19 381.83 238.64 360.69 250.92 360.76 226.47"/><polygon class="cls-17" points="339.48 214.19 360.62 201.9 381.9 214.19 360.76 226.47 339.48 214.19"/></g><g class="cls-1"><polygon class="cls-12" points="139.98 225.54 139.86 267.76 132.8 263.69 132.92 221.47 139.98 225.54"/><polygon class="cls-13" points="139.98 225.54 147 221.46 146.88 263.69 139.86 267.76 139.98 225.54"/><polygon class="cls-14" points="132.92 221.47 139.94 217.39 147 221.46 139.98 225.54 132.92 221.47"/></g><g class="cls-1"><polygon class="cls-15" points="140 227.35 139.93 251.8 118.65 239.51 118.72 215.06 140 227.35"/><polygon class="cls-16" points="140 227.35 161.15 215.06 161.08 239.51 139.93 251.8 140 227.35"/><polygon class="cls-17" points="118.72 215.06 139.86 202.77 161.15 215.06 140 227.35 118.72 215.06"/></g><path class="cls-31" d="M179.85,209.57l-8.54,21.84,15.5,12.49,7.81-25Z"/><polygon class="cls-32" points="194.62 218.91 186.81 243.91 205.57 234.3 194.62 218.91"/><polygon class="cls-33" points="195.36 229.51 192.97 240.75 201.7 236.29 195.36 229.51"/></svg>