<svg id="layer" xmlns="http://www.w3.org/2000/svg" viewBox="0 0 500 500"><defs><style>.cls-1{isolation:isolate;}.cls-2{fill:#897e73;}.cls-3{fill:#83766b;}.cls-4{fill:#726457;}.cls-5{fill:#cb9a79;}.cls-6{fill:#c99572;}.cls-7{fill:#c1865f;}.cls-8{fill:#91ca7e;}.cls-9{fill:#8bc776;}.cls-10{fill:#7bbf64;}.cls-11{fill:#936029;}.cls-12{fill:#a07343;}.cls-13{fill:#a57a4c;}.cls-14{fill:#43b36e;}.cls-15{fill:#5abc7f;}.cls-16{fill:#63c086;}</style></defs><title>v1</title><g class="cls-1"><polygon class="cls-2" points="426.69 354.76 250.49 457.15 73.14 354.76 249.33 252.36 426.69 354.76"/><polygon class="cls-3" points="426.69 354.76 426.65 366.99 250.46 469.38 250.49 457.15 426.69 354.76"/><polygon class="cls-4" points="250.49 457.15 250.46 469.38 73.1 366.98 73.14 354.76 250.49 457.15"/></g><g class="cls-1"><polygon class="cls-5" points="426.75 297.59 250.55 399.98 73.2 297.59 249.4 195.19 426.75 297.59"/><polygon class="cls-6" points="426.75 297.59 426.59 354.65 250.39 457.04 250.55 399.98 426.75 297.59"/><polygon class="cls-7" points="250.55 399.98 250.39 457.04 73.04 354.65 73.2 297.59 250.55 399.98"/></g><g class="cls-1"><polygon class="cls-8" points="426.73 256.75 250.53 359.15 73.18 256.75 249.38 154.36 426.73 256.75"/><polygon class="cls-9" points="426.73 256.75 426.61 297.51 250.41 399.91 250.53 359.15 426.73 256.75"/><polygon class="cls-10" points="250.53 359.15 250.41 399.91 73.06 297.51 73.18 256.75 250.53 359.15"/></g><g class="cls-1"><polygon class="cls-11" points="250.1 161.33 249.8 267.3 232.07 257.06 232.37 151.09 250.1 161.33"/><polygon class="cls-12" points="250.1 161.33 267.72 151.09 267.42 257.06 249.8 267.3 250.1 161.33"/><polygon class="cls-13" points="232.37 151.09 249.99 140.85 267.72 151.09 250.1 161.33 232.37 151.09"/></g><g class="cls-1"><polygon class="cls-14" points="250.25 142.21 250.01 223.72 179.07 182.77 179.31 101.25 250.25 142.21"/><polygon class="cls-15" points="250.25 142.21 320.73 101.25 320.49 182.77 250.01 223.72 250.25 142.21"/><polygon class="cls-16" points="179.31 101.25 249.78 60.29 320.73 101.25 250.25 142.21 179.31 101.25"/></g></svg>