<svg id="layer" xmlns="http://www.w3.org/2000/svg" viewBox="0 0 500 500"><defs><style>.cls-1{isolation:isolate;}.cls-2{fill:#897e73;}.cls-3{fill:#83766b;}.cls-4{fill:#726457;}.cls-5{fill:#cb9a79;}.cls-6{fill:#c99572;}.cls-7{fill:#c1865f;}.cls-8{fill:#91ca7e;}.cls-9{fill:#8bc776;}.cls-10{fill:#7bbf64;}.cls-11{fill:#936029;}.cls-12{fill:#a07343;}.cls-13{fill:#a57a4c;}.cls-14{fill:#43b36e;}.cls-15{fill:#5abc7f;}.cls-16{fill:#63c086;}.cls-17{fill:#e84947;}.cls-18{fill:#eb5f5d;}.cls-19{fill:#ec6766;}</style></defs><title>v5</title><g class="cls-1"><polygon class="cls-2" points="426.69 354.76 250.49 457.15 73.14 354.76 249.33 252.36 426.69 354.76"/><polygon class="cls-3" points="426.69 354.76 426.65 366.99 250.46 469.38 250.49 457.15 426.69 354.76"/><polygon class="cls-4" points="250.49 457.15 250.46 469.38 73.1 366.98 73.14 354.76 250.49 457.15"/></g><g class="cls-1"><polygon class="cls-5" points="426.75 297.59 250.55 399.98 73.2 297.59 249.4 195.19 426.75 297.59"/><polygon class="cls-6" points="426.75 297.59 426.59 354.65 250.39 457.04 250.55 399.98 426.75 297.59"/><polygon class="cls-7" points="250.55 399.98 250.39 457.04 73.04 354.65 73.2 297.59 250.55 399.98"/></g><g class="cls-1"><polygon class="cls-8" points="426.73 256.75 250.53 359.15 73.18 256.75 249.38 154.36 426.73 256.75"/><polygon class="cls-9" points="426.73 256.75 426.61 297.51 250.41 399.91 250.53 359.15 426.73 256.75"/><polygon class="cls-10" points="250.53 359.15 250.41 399.91 73.06 297.51 73.18 256.75 250.53 359.15"/></g><g class="cls-1"><polygon class="cls-11" points="250.1 161.33 249.8 267.3 232.07 257.06 232.37 151.09 250.1 161.33"/><polygon class="cls-12" points="250.1 161.33 267.72 151.09 267.42 257.06 249.8 267.3 250.1 161.33"/><polygon class="cls-13" points="232.37 151.09 249.99 140.85 267.72 151.09 250.1 161.33 232.37 151.09"/></g><g class="cls-1"><polygon class="cls-14" points="250.25 98.11 250.01 179.63 179.07 138.67 179.31 57.15 250.25 98.11"/><polygon class="cls-15" points="250.25 98.11 320.73 57.15 320.49 138.67 250.01 179.63 250.25 98.11"/><polygon class="cls-16" points="179.31 57.15 249.78 16.19 320.73 57.15 250.25 98.11 179.31 57.15"/></g><g class="cls-1"><polygon class="cls-14" points="277.64 157.16 277.48 214.21 227.82 185.54 227.98 128.48 277.64 157.16"/><polygon class="cls-15" points="277.64 157.16 326.98 128.49 326.82 185.54 277.48 214.21 277.64 157.16"/><polygon class="cls-16" points="227.98 128.48 277.32 99.81 326.98 128.49 277.64 157.16 227.98 128.48"/></g><g class="cls-1"><polygon class="cls-14" points="217.57 182.12 217.46 222.87 181.98 202.39 182.1 161.64 217.57 182.12"/><polygon class="cls-15" points="217.57 182.12 252.81 161.64 252.69 202.39 217.46 222.87 217.57 182.12"/><polygon class="cls-16" points="182.1 161.64 217.34 141.16 252.81 161.64 217.57 182.12 182.1 161.64"/></g><g class="cls-1"><polygon class="cls-17" points="217.43 101.05 217.41 109.2 210.31 105.1 210.33 96.95 217.43 101.05"/><polygon class="cls-18" points="217.43 101.05 224.48 96.95 224.46 105.1 217.41 109.2 217.43 101.05"/><polygon class="cls-19" points="210.33 96.95 217.38 92.85 224.48 96.95 217.43 101.05 210.33 96.95"/></g><g class="cls-1"><polygon class="cls-17" points="202.93 199.1 202.9 207.25 195.81 203.15 195.83 195 202.93 199.1"/><polygon class="cls-18" points="202.93 199.1 209.97 195 209.95 203.15 202.9 207.25 202.93 199.1"/><polygon class="cls-19" points="195.83 195 202.88 190.91 209.97 195 202.93 199.1 195.83 195"/></g><g class="cls-1"><polygon class="cls-17" points="192.43 127.04 192.41 135.19 185.32 131.09 185.34 122.94 192.43 127.04"/><polygon class="cls-18" points="192.43 127.04 199.48 122.94 199.46 131.09 192.41 135.19 192.43 127.04"/><polygon class="cls-19" points="185.34 122.94 192.39 118.84 199.48 122.94 192.43 127.04 185.34 122.94"/></g><g class="cls-1"><polygon class="cls-17" points="295.93 187.91 295.91 196.06 288.82 191.97 288.84 183.82 295.93 187.91"/><polygon class="cls-18" points="295.93 187.91 302.98 183.82 302.96 191.97 295.91 196.06 295.93 187.91"/><polygon class="cls-19" points="288.84 183.82 295.89 179.72 302.98 183.82 295.93 187.91 288.84 183.82"/></g><g class="cls-1"><polygon class="cls-17" points="304.93 93.04 304.91 101.2 297.82 97.11 297.84 88.95 304.93 93.04"/><polygon class="cls-18" points="304.93 93.04 311.98 88.95 311.96 97.11 304.91 101.2 304.93 93.04"/><polygon class="cls-19" points="297.84 88.95 304.89 84.85 311.98 88.95 304.93 93.04 297.84 88.95"/></g><g class="cls-1"><polygon class="cls-17" points="314.93 157.03 314.91 165.18 307.81 161.09 307.84 152.94 314.93 157.03"/><polygon class="cls-18" points="314.93 157.03 321.98 152.94 321.96 161.09 314.91 165.18 314.93 157.03"/><polygon class="cls-19" points="307.84 152.94 314.89 148.84 321.98 152.94 314.93 157.03 307.84 152.94"/></g></svg>