<svg id="layer" xmlns="http://www.w3.org/2000/svg" viewBox="0 0 500 500"><defs><style>.cls-1{isolation:isolate;}.cls-2{fill:#897e73;}.cls-3{fill:#83766b;}.cls-4{fill:#726457;}.cls-5{fill:#cb9a79;}.cls-6{fill:#c99572;}.cls-7{fill:#c1865f;}.cls-8{fill:#91ca7e;}.cls-9{fill:#8bc776;}.cls-10{fill:#7bbf64;}.cls-11{fill:#a3d9e7;}.cls-12{fill:#936029;}.cls-13{fill:#a07343;}.cls-14{fill:#a57a4c;}.cls-15{fill:#43b36e;}.cls-16{fill:#5abc7f;}.cls-17{fill:#63c086;}.cls-18{fill:#5b9e64;}.cls-19{fill:#e84644;}.cls-20{fill:#ce3f3d;}.cls-21{fill:#a93534;}</style></defs><title>v7</title><g class="cls-1"><polygon class="cls-2" points="426.69 354.76 250.49 457.15 73.14 354.76 249.33 252.36 426.69 354.76"/><polygon class="cls-3" points="426.69 354.76 426.65 366.99 250.46 469.38 250.49 457.15 426.69 354.76"/><polygon class="cls-4" points="250.49 457.15 250.46 469.38 73.1 366.98 73.14 354.76 250.49 457.15"/></g><g class="cls-1"><polygon class="cls-5" points="426.75 297.59 250.55 399.98 73.2 297.59 249.4 195.19 426.75 297.59"/><polygon class="cls-6" points="426.75 297.59 426.59 354.65 250.39 457.04 250.55 399.98 426.75 297.59"/><polygon class="cls-7" points="250.55 399.98 250.39 457.04 73.04 354.65 73.2 297.59 250.55 399.98"/></g><g class="cls-1"><polygon class="cls-8" points="426.73 256.75 250.53 359.15 73.18 256.75 249.38 154.36 426.73 256.75"/><polygon class="cls-9" points="426.73 256.75 426.61 297.51 250.41 399.91 250.53 359.15 426.73 256.75"/><polygon class="cls-10" points="250.53 359.15 250.41 399.91 73.06 297.51 73.18 256.75 250.53 359.15"/></g><path class="cls-11" d="M351.77,247.65a20.11,20.11,0,0,1,2.1,1.39c17.08,13.08-5.86,46.28-48.11,56.83-28.47,7.1-67,4.24-83.73-5.43a20.1,20.1,0,0,1-6.57-5.6c-10.8-15.54,26.37-39.19,63.89-47.72C300,242.44,336.36,238.76,351.77,247.65Z"/><g class="cls-1"><polygon class="cls-12" points="247.22 138.41 247 218.4 233.62 210.67 233.84 130.69 247.22 138.41"/><polygon class="cls-13" points="247.22 138.41 260.52 130.69 260.3 210.67 247 218.4 247.22 138.41"/><polygon class="cls-14" points="233.84 130.69 247.14 122.96 260.52 130.69 247.22 138.41 233.84 130.69"/></g><g class="cls-1"><polygon class="cls-15" points="247.33 90.7 247.16 152.23 193.62 121.31 193.79 59.79 247.33 90.7"/><polygon class="cls-16" points="247.33 90.7 300.52 59.79 300.35 121.31 247.16 152.23 247.33 90.7"/><polygon class="cls-17" points="193.79 59.79 246.98 28.88 300.52 59.79 247.33 90.7 193.79 59.79"/></g><g class="cls-1"><polygon class="cls-15" points="268.07 135.26 267.95 178.49 230.33 156.77 230.45 113.54 268.07 135.26"/><polygon class="cls-16" points="268.07 135.26 305.44 113.54 305.32 156.77 267.95 178.49 268.07 135.26"/><polygon class="cls-17" points="230.45 113.54 267.83 91.82 305.44 113.54 268.07 135.26 230.45 113.54"/></g><g class="cls-1"><polygon class="cls-15" points="222.56 154.17 222.48 185.05 195.6 169.54 195.69 138.66 222.56 154.17"/><polygon class="cls-16" points="222.56 154.17 249.26 138.66 249.17 169.54 222.48 185.05 222.56 154.17"/><polygon class="cls-17" points="195.69 138.66 222.39 123.14 249.26 138.66 222.56 154.17 195.69 138.66"/></g><path class="cls-18" d="M257,289.65a4.68,4.68,0,0,1,1.94,1.93l-7.24,1.13,6.13,2.51a8.81,8.81,0,0,1-4.17,1.68,11.62,11.62,0,0,1-7.27-1.14,4.68,4.68,0,0,1-1.94-1.93c-1.07-2.3,1.31-4.7,5.28-5.32A11.62,11.62,0,0,1,257,289.65Z"/><path class="cls-19" d="M148.11,196.07l-16.17,41.37,29.35,23.67,14.81-47.35Z"/><polygon class="cls-20" points="176.1 213.76 161.29 261.11 196.85 242.92 176.1 213.76"/><polygon class="cls-21" points="177.49 233.84 172.97 255.14 189.5 246.68 177.49 233.84"/></svg>